<svg width="334" height="84" viewBox="0 0 334 84" fill="none" xmlns="http://www.w3.org/2000/svg">
<path d="M20.436 47.5844H10.7069L0.790192 2.79276H10.3319L16.3944 33.1886L25.1652 2.79276H33.8735L42.5819 33.0636L48.6652 2.79276H57.8735L47.9569 47.5844H38.2277L29.3319 16.2928L20.436 47.5844Z" fill="#F2F2F2"/>
<path d="M71.8962 48.1678C68.3129 48.1678 65.3858 47.2198 63.1254 45.3136C60.8598 43.4125 59.7296 40.949 59.7296 37.9178C59.7296 34.7667 60.9431 32.2928 63.3754 30.5011C65.8025 28.7094 69.1514 27.8136 73.4171 27.8136C74.7921 27.8136 76.1567 27.9178 77.5212 28.1261C78.8806 28.3344 80.2296 28.6573 81.5629 29.0844V26.7303C81.5629 24.8032 80.9639 23.35 79.7712 22.3761C78.5733 21.3917 76.8233 20.8969 74.5212 20.8969C73.1046 20.8969 71.5733 21.1209 69.9379 21.5636C68.2973 22.0115 66.4275 22.7042 64.3337 23.6469L61.1462 17.1886C63.74 15.9959 66.2608 15.1 68.7087 14.5011C71.1671 13.9073 73.5889 13.6053 75.9796 13.6053C80.4639 13.6053 83.9483 14.6834 86.4379 16.8344C88.9379 18.9907 90.1879 22.0323 90.1879 25.9594V47.5844H81.5629V45.2719C80.1462 46.2615 78.6567 46.9907 77.1046 47.4594C75.5473 47.9282 73.8129 48.1678 71.8962 48.1678ZM68.1254 37.7303C68.1254 39.0115 68.6723 40.0219 69.7712 40.7719C70.8806 41.5219 72.3546 41.8969 74.1879 41.8969C75.6462 41.8969 76.9796 41.7198 78.1879 41.3553C79.4067 40.9803 80.5317 40.4542 81.5629 39.7719V34.7928C80.49 34.3657 79.365 34.0532 78.1879 33.8553C77.0212 33.6625 75.7973 33.5636 74.5212 33.5636C72.5056 33.5636 70.9379 33.9386 69.8129 34.6886C68.6879 35.4386 68.1254 36.4542 68.1254 37.7303Z" fill="#F2F2F2"/>
<path d="M103.961 0.855255V47.5844H95.1897V2.79276L103.961 0.855255Z" fill="#F2F2F2"/>
<path d="M113.683 38.1678V21.6053H106.829V14.2303H113.683V5.73025L122.454 3.75108V14.2303H131.933V21.6053H122.454V36.3761C122.454 37.9594 122.793 39.074 123.475 39.7094C124.152 40.35 125.35 40.6678 127.058 40.6678C127.86 40.6678 128.626 40.6209 129.35 40.5219C130.084 40.4125 130.876 40.2042 131.725 39.8969V47.0636C130.793 47.3709 129.662 47.6157 128.329 47.8136C127.006 48.0063 125.881 48.1053 124.954 48.1053C121.23 48.1053 118.418 47.2667 116.517 45.5844C114.626 43.8917 113.683 41.4178 113.683 38.1678Z" fill="#F2F2F2"/>
<path d="M133.072 30.9386C133.072 28.5115 133.53 26.2407 134.447 24.1261C135.364 22.0167 136.619 20.1834 138.218 18.6261C139.827 17.074 141.718 15.85 143.884 14.9594C146.062 14.0584 148.39 13.6053 150.864 13.6053C153.332 13.6053 155.661 14.0584 157.843 14.9594C160.02 15.85 161.911 17.074 163.509 18.6261C165.103 20.1834 166.364 22.0167 167.28 24.1261C168.197 26.2407 168.655 28.5115 168.655 30.9386C168.655 33.3709 168.197 35.6469 167.28 37.7719C166.364 39.8865 165.103 41.7094 163.509 43.2511C161.911 44.7823 160.02 45.9959 157.843 46.8969C155.661 47.7823 153.332 48.2303 150.864 48.2303C148.39 48.2303 146.062 47.7823 143.884 46.8969C141.718 45.9959 139.827 44.7823 138.218 43.2511C136.619 41.7094 135.364 39.8865 134.447 37.7719C133.53 35.6469 133.072 33.3709 133.072 30.9386ZM150.864 40.6053C153.416 40.6053 155.593 39.6678 157.384 37.7928C159.187 35.9178 160.093 33.6365 160.093 30.9386C160.093 28.2198 159.187 25.9178 157.384 24.0428C155.593 22.1573 153.416 21.2094 150.864 21.2094C148.306 21.2094 146.134 22.1573 144.343 24.0428C142.551 25.9178 141.655 28.2198 141.655 30.9386C141.655 33.6365 142.551 35.9178 144.343 37.7928C146.134 39.6678 148.306 40.6053 150.864 40.6053Z" fill="#F2F2F2"/>
<path d="M172.374 47.5844V14.2303H181.144V16.8553C182.42 15.8032 183.837 14.9959 185.394 14.4386C186.946 13.8865 188.644 13.6053 190.478 13.6053C194.321 13.6053 197.483 14.8448 199.957 17.3136C202.426 19.7875 203.665 22.9698 203.665 26.8553V47.5844H194.894V28.1261C194.894 26.0428 194.259 24.3657 192.999 23.0844C191.749 21.7928 190.071 21.1469 187.978 21.1469C186.53 21.1469 185.217 21.4386 184.04 22.0219C182.874 22.5948 181.905 23.4125 181.144 24.4803V47.5844H172.374Z" fill="#F2F2F2"/>
<path d="M213.203 38.1678V21.6053H206.349V14.2303H213.203V5.73025L221.974 3.75108V14.2303H231.453V21.6053H221.974V36.3761C221.974 37.9594 222.313 39.074 222.995 39.7094C223.672 40.35 224.87 40.6678 226.578 40.6678C227.38 40.6678 228.146 40.6209 228.87 40.5219C229.604 40.4125 230.396 40.2042 231.245 39.8969V47.0636C230.313 47.3709 229.182 47.6157 227.849 47.8136C226.526 48.0063 225.401 48.1053 224.474 48.1053C220.75 48.1053 217.938 47.2667 216.036 45.5844C214.146 43.8917 213.203 41.4178 213.203 38.1678Z" fill="#F2F2F2"/>
<path d="M264.029 43.4178C261.972 45.0844 259.868 46.3084 257.717 47.0844C255.56 47.8448 253.159 48.2303 250.508 48.2303C247.993 48.2303 245.639 47.7823 243.446 46.8969C241.248 45.9959 239.347 44.7823 237.738 43.2511C236.139 41.7094 234.883 39.8865 233.967 37.7719C233.05 35.6469 232.592 33.3709 232.592 30.9386C232.592 28.5532 233.029 26.3032 233.904 24.1886C234.779 22.0792 235.977 20.2459 237.508 18.6886C239.05 17.1365 240.873 15.9125 242.988 15.0219C245.097 14.1209 247.347 13.6678 249.738 13.6678C252.081 13.6678 254.269 14.1261 256.3 15.0428C258.326 15.9594 260.076 17.2094 261.55 18.7928C263.019 20.3657 264.175 22.2511 265.008 24.4594C265.842 26.6573 266.258 29.0323 266.258 31.5844V33.8969H241.425C242.019 35.9803 243.175 37.6625 244.883 38.9386C246.592 40.2198 248.597 40.8553 250.904 40.8553C252.347 40.8553 253.706 40.6261 254.988 40.1678C256.279 39.699 257.368 39.0323 258.258 38.1678L264.029 43.4178ZM249.55 20.8969C247.55 20.8969 245.821 21.5115 244.363 22.7303C242.915 23.9386 241.915 25.574 241.363 27.6261H257.675C257.118 25.6573 256.102 24.0428 254.633 22.7928C253.159 21.5323 251.467 20.8969 249.55 20.8969Z" fill="#F2F2F2"/>
<path d="M286.286 40.5428C287.786 40.5428 289.182 40.2459 290.473 39.6469C291.775 39.0532 293.025 38.1157 294.223 36.8344L299.473 42.2719C297.765 44.1469 295.713 45.6157 293.328 46.6678C290.937 47.7094 288.463 48.2303 285.911 48.2303C283.479 48.2303 281.182 47.7823 279.015 46.8969C276.859 45.9959 275.005 44.7823 273.453 43.2511C271.895 41.7094 270.666 39.8865 269.765 37.7719C268.874 35.6469 268.432 33.3709 268.432 30.9386C268.432 28.5115 268.874 26.2407 269.765 24.1261C270.666 22.0167 271.895 20.1834 273.453 18.6261C275.005 17.074 276.859 15.85 279.015 14.9594C281.182 14.0584 283.479 13.6053 285.911 13.6053C288.546 13.6053 291.083 14.1261 293.515 15.1678C295.942 16.2094 298.015 17.6678 299.723 19.5428L294.348 25.2511C293.15 23.9334 291.874 22.9334 290.515 22.2511C289.15 21.5584 287.682 21.2094 286.098 21.2094C283.583 21.2094 281.458 22.1573 279.723 24.0428C277.999 25.9178 277.14 28.2198 277.14 30.9386C277.14 33.6782 278.02 35.9594 279.786 37.7928C281.562 39.6261 283.729 40.5428 286.286 40.5428Z" fill="#F2F2F2"/>
<path d="M302.357 47.5844V2.79276L311.128 0.855255V16.8553C312.404 15.8032 313.821 14.9959 315.378 14.4386C316.93 13.8865 318.628 13.6053 320.461 13.6053C324.305 13.6053 327.467 14.8448 329.941 17.3136C332.409 19.7875 333.649 22.9698 333.649 26.8553V47.5844H324.878V28.1261C324.878 26.0428 324.243 24.3657 322.982 23.0844C321.732 21.7928 320.055 21.1469 317.961 21.1469C316.514 21.1469 315.201 21.4386 314.024 22.0219C312.857 22.5948 311.889 23.4125 311.128 24.4803V47.5844H302.357Z" fill="#F2F2F2"/>
<mask id="mask0_38_163" style="mask-type:luminance" maskUnits="userSpaceOnUse" x="11" y="69" width="321" height="15">
<path d="M11.9792 69.6406H331.901V83.1979H11.9792V69.6406Z" fill="white"/>
</mask>
<g mask="url(#mask0_38_163)">
<mask id="mask1_38_163" style="mask-type:luminance" maskUnits="userSpaceOnUse" x="11" y="69" width="321" height="15">
<path d="M11.9792 69.6406L14.875 83.0156L331.901 70.3646L331.719 69.6406H11.9792Z" fill="white"/>
</mask>
<g mask="url(#mask1_38_163)">
<path d="M11.9792 69.6406H331.901V82.9271H11.9792V69.6406Z" fill="#F2F2F2"/>
</g>
</g>
</svg>
