<svg width="500" height="500" viewBox="0 0 500 500" fill="none" xmlns="http://www.w3.org/2000/svg">
<g clip-path="url(#clip0_38_6)">
<path d="M550 -50H-50V550H550V-50Z" fill="white"/>
<path d="M550 -50H-50V550H550V-50Z" fill="white"/>
<path d="M550 -50H-50V550H550V-50Z" fill="#0658F6"/>
<path d="M102.436 253.584H92.7069L82.7902 208.793H92.3319L98.3944 239.189L107.165 208.793H115.874L124.582 239.064L130.665 208.793H139.874L129.957 253.584H120.228L111.332 222.293L102.436 253.584Z" fill="#F2F2F2"/>
<path d="M153.896 254.168C150.313 254.168 147.386 253.22 145.125 251.314C142.86 249.413 141.73 246.949 141.73 243.918C141.73 240.767 142.943 238.293 145.375 236.501C147.802 234.709 151.151 233.814 155.417 233.814C156.792 233.814 158.157 233.918 159.521 234.126C160.881 234.334 162.23 234.657 163.563 235.084V232.73C163.563 230.803 162.964 229.35 161.771 228.376C160.573 227.392 158.823 226.897 156.521 226.897C155.105 226.897 153.573 227.121 151.938 227.564C150.297 228.012 148.427 228.704 146.334 229.647L143.146 223.189C145.74 221.996 148.261 221.1 150.709 220.501C153.167 219.907 155.589 219.605 157.98 219.605C162.464 219.605 165.948 220.683 168.438 222.834C170.938 224.991 172.188 228.032 172.188 231.959V253.584H163.563V251.272C162.146 252.262 160.657 252.991 159.105 253.459C157.547 253.928 155.813 254.168 153.896 254.168ZM150.125 243.73C150.125 245.012 150.672 246.022 151.771 246.772C152.881 247.522 154.355 247.897 156.188 247.897C157.646 247.897 158.98 247.72 160.188 247.355C161.407 246.98 162.532 246.454 163.563 245.772V240.793C162.49 240.366 161.365 240.053 160.188 239.855C159.021 239.663 157.797 239.564 156.521 239.564C154.506 239.564 152.938 239.939 151.813 240.689C150.688 241.439 150.125 242.454 150.125 243.73Z" fill="#F2F2F2"/>
<path d="M185.961 206.855V253.584H177.19V208.793L185.961 206.855Z" fill="#F2F2F2"/>
<path d="M195.683 244.168V227.605H188.829V220.23H195.683V211.73L204.454 209.751V220.23H213.933V227.605H204.454V242.376C204.454 243.959 204.793 245.074 205.475 245.709C206.152 246.35 207.35 246.668 209.058 246.668C209.86 246.668 210.626 246.621 211.35 246.522C212.084 246.413 212.876 246.204 213.725 245.897V253.064C212.793 253.371 211.662 253.616 210.329 253.814C209.006 254.006 207.881 254.105 206.954 254.105C203.23 254.105 200.418 253.267 198.517 251.584C196.626 249.892 195.683 247.418 195.683 244.168Z" fill="#F2F2F2"/>
<path d="M215.072 236.939C215.072 234.512 215.53 232.241 216.447 230.126C217.364 228.017 218.619 226.183 220.218 224.626C221.827 223.074 223.718 221.85 225.884 220.959C228.062 220.058 230.39 219.605 232.864 219.605C235.332 219.605 237.661 220.058 239.843 220.959C242.02 221.85 243.911 223.074 245.509 224.626C247.103 226.183 248.364 228.017 249.28 230.126C250.197 232.241 250.655 234.512 250.655 236.939C250.655 239.371 250.197 241.647 249.28 243.772C248.364 245.887 247.103 247.709 245.509 249.251C243.911 250.782 242.02 251.996 239.843 252.897C237.661 253.782 235.332 254.23 232.864 254.23C230.39 254.23 228.062 253.782 225.884 252.897C223.718 251.996 221.827 250.782 220.218 249.251C218.619 247.709 217.364 245.887 216.447 243.772C215.53 241.647 215.072 239.371 215.072 236.939ZM232.864 246.605C235.416 246.605 237.593 245.668 239.384 243.793C241.187 241.918 242.093 239.637 242.093 236.939C242.093 234.22 241.187 231.918 239.384 230.043C237.593 228.157 235.416 227.209 232.864 227.209C230.306 227.209 228.134 228.157 226.343 230.043C224.551 231.918 223.655 234.22 223.655 236.939C223.655 239.637 224.551 241.918 226.343 243.793C228.134 245.668 230.306 246.605 232.864 246.605Z" fill="#F2F2F2"/>
<path d="M254.374 253.584V220.23H263.144V222.855C264.42 221.803 265.837 220.996 267.394 220.439C268.946 219.887 270.644 219.605 272.478 219.605C276.321 219.605 279.483 220.845 281.957 223.314C284.426 225.788 285.665 228.97 285.665 232.855V253.584H276.894V234.126C276.894 232.043 276.259 230.366 274.999 229.084C273.749 227.793 272.071 227.147 269.978 227.147C268.53 227.147 267.217 227.439 266.04 228.022C264.874 228.595 263.905 229.413 263.144 230.48V253.584H254.374Z" fill="#F2F2F2"/>
<path d="M295.203 244.168V227.605H288.349V220.23H295.203V211.73L303.974 209.751V220.23H313.453V227.605H303.974V242.376C303.974 243.959 304.313 245.074 304.995 245.709C305.672 246.35 306.87 246.668 308.578 246.668C309.38 246.668 310.146 246.621 310.87 246.522C311.604 246.413 312.396 246.204 313.245 245.897V253.064C312.313 253.371 311.182 253.616 309.849 253.814C308.526 254.006 307.401 254.105 306.474 254.105C302.75 254.105 299.938 253.267 298.036 251.584C296.146 249.892 295.203 247.418 295.203 244.168Z" fill="#F2F2F2"/>
<path d="M346.029 249.418C343.972 251.084 341.868 252.308 339.717 253.084C337.56 253.845 335.159 254.23 332.508 254.23C329.993 254.23 327.639 253.782 325.446 252.897C323.248 251.996 321.347 250.782 319.738 249.251C318.139 247.709 316.883 245.887 315.967 243.772C315.05 241.647 314.592 239.371 314.592 236.939C314.592 234.553 315.029 232.303 315.904 230.189C316.779 228.079 317.977 226.246 319.508 224.689C321.05 223.137 322.873 221.913 324.988 221.022C327.097 220.121 329.347 219.668 331.738 219.668C334.081 219.668 336.269 220.126 338.3 221.043C340.326 221.959 342.076 223.209 343.55 224.793C345.019 226.366 346.175 228.251 347.008 230.459C347.842 232.657 348.258 235.032 348.258 237.584V239.897H323.425C324.019 241.98 325.175 243.663 326.883 244.939C328.592 246.22 330.597 246.855 332.904 246.855C334.347 246.855 335.706 246.626 336.988 246.168C338.279 245.699 339.368 245.032 340.258 244.168L346.029 249.418ZM331.55 226.897C329.55 226.897 327.821 227.512 326.363 228.73C324.915 229.939 323.915 231.574 323.363 233.626H339.675C339.118 231.657 338.102 230.043 336.633 228.793C335.159 227.532 333.467 226.897 331.55 226.897Z" fill="#F2F2F2"/>
<path d="M368.286 246.543C369.786 246.543 371.182 246.246 372.473 245.647C373.775 245.053 375.025 244.116 376.223 242.834L381.473 248.272C379.765 250.147 377.713 251.616 375.328 252.668C372.937 253.709 370.463 254.23 367.911 254.23C365.479 254.23 363.182 253.782 361.015 252.897C358.859 251.996 357.005 250.782 355.453 249.251C353.895 247.709 352.666 245.887 351.765 243.772C350.874 241.647 350.432 239.371 350.432 236.939C350.432 234.512 350.874 232.241 351.765 230.126C352.666 228.017 353.895 226.183 355.453 224.626C357.005 223.074 358.859 221.85 361.015 220.959C363.182 220.058 365.479 219.605 367.911 219.605C370.546 219.605 373.083 220.126 375.515 221.168C377.942 222.209 380.015 223.668 381.723 225.543L376.348 231.251C375.15 229.933 373.874 228.933 372.515 228.251C371.15 227.558 369.682 227.209 368.098 227.209C365.583 227.209 363.458 228.157 361.723 230.043C359.999 231.918 359.14 234.22 359.14 236.939C359.14 239.678 360.02 241.959 361.786 243.793C363.562 245.626 365.729 246.543 368.286 246.543Z" fill="#F2F2F2"/>
<path d="M384.357 253.584V208.793L393.128 206.855V222.855C394.404 221.803 395.821 220.996 397.378 220.439C398.93 219.887 400.628 219.605 402.461 219.605C406.305 219.605 409.467 220.845 411.941 223.314C414.409 225.788 415.649 228.97 415.649 232.855V253.584H406.878V234.126C406.878 232.043 406.243 230.366 404.982 229.084C403.732 227.793 402.055 227.147 399.961 227.147C398.514 227.147 397.201 227.439 396.024 228.022C394.857 228.595 393.889 229.413 393.128 230.48V253.584H384.357Z" fill="#F2F2F2"/>
<mask id="mask0_38_6" style="mask-type:luminance" maskUnits="userSpaceOnUse" x="93" y="275" width="321" height="15">
<path d="M93.9792 275.641H413.901V289.198H93.9792V275.641Z" fill="white"/>
</mask>
<g mask="url(#mask0_38_6)">
<mask id="mask1_38_6" style="mask-type:luminance" maskUnits="userSpaceOnUse" x="93" y="275" width="321" height="15">
<path d="M93.9792 275.641L96.875 289.016L413.901 276.365L413.719 275.641H93.9792Z" fill="white"/>
</mask>
<g mask="url(#mask1_38_6)">
<path d="M93.9792 275.641H413.901V288.927H93.9792V275.641Z" fill="#F2F2F2"/>
</g>
</g>
</g>
<defs>
<clipPath id="clip0_38_6">
<rect width="500" height="500" fill="white"/>
</clipPath>
</defs>
</svg>
