<svg width="1920" height="449" viewBox="0 0 1920 449" fill="none" xmlns="http://www.w3.org/2000/svg">
<rect width="1920" height="449" fill="url(#paint0_radial_220_146)"/>
<path d="M325.673 243.143H325.581L324.566 245.229L321.742 250.379L318.918 245.229L317.902 243.143H317.81V253H315.817V240.116H318.29L321.742 246.669H321.852L325.304 240.116H327.667V253H325.673V243.143ZM337.735 253C337.206 253 336.8 252.852 336.517 252.557C336.234 252.249 336.061 251.862 336 251.394H335.908C335.723 251.997 335.385 252.452 334.892 252.76C334.4 253.068 333.803 253.221 333.102 253.221C332.105 253.221 331.336 252.963 330.795 252.446C330.265 251.929 330.001 251.234 330.001 250.36C330.001 249.401 330.345 248.681 331.035 248.201C331.736 247.721 332.757 247.481 334.099 247.481H335.834V246.669C335.834 246.078 335.674 245.623 335.354 245.303C335.034 244.983 334.535 244.823 333.859 244.823C333.293 244.823 332.831 244.946 332.474 245.192C332.117 245.438 331.816 245.752 331.57 246.134L330.37 245.044C330.69 244.503 331.139 244.06 331.717 243.715C332.296 243.359 333.053 243.18 333.988 243.18C335.231 243.18 336.184 243.469 336.849 244.048C337.513 244.626 337.846 245.457 337.846 246.54V251.357H338.861V253H337.735ZM333.674 251.689C334.302 251.689 334.818 251.554 335.225 251.283C335.631 251 335.834 250.625 335.834 250.157V248.773H334.136C332.745 248.773 332.05 249.204 332.05 250.065V250.397C332.05 250.828 332.191 251.154 332.474 251.376C332.77 251.585 333.17 251.689 333.674 251.689ZM341.848 241.685C341.43 241.685 341.122 241.587 340.925 241.39C340.74 241.193 340.648 240.941 340.648 240.633V240.319C340.648 240.012 340.74 239.759 340.925 239.562C341.122 239.365 341.43 239.267 341.848 239.267C342.266 239.267 342.568 239.365 342.752 239.562C342.937 239.759 343.029 240.012 343.029 240.319V240.633C343.029 240.941 342.937 241.193 342.752 241.39C342.568 241.587 342.266 241.685 341.848 241.685ZM340.833 243.402H342.845V253H340.833V243.402ZM345.718 253V243.402H347.73V244.989H347.822C348.031 244.472 348.345 244.042 348.763 243.697C349.194 243.352 349.778 243.18 350.517 243.18C351.501 243.18 352.264 243.506 352.806 244.158C353.359 244.798 353.636 245.715 353.636 246.909V253H351.624V247.167C351.624 245.666 351.021 244.915 349.815 244.915C349.557 244.915 349.299 244.952 349.04 245.026C348.794 245.088 348.573 245.186 348.376 245.321C348.179 245.457 348.019 245.629 347.896 245.838C347.785 246.047 347.73 246.293 347.73 246.577V253H345.718ZM360.935 240.116H366.638C367.709 240.116 368.546 240.418 369.149 241.021C369.764 241.624 370.072 242.43 370.072 243.439C370.072 243.919 370.004 244.331 369.869 244.675C369.733 245.008 369.561 245.284 369.352 245.506C369.143 245.715 368.903 245.875 368.632 245.986C368.361 246.084 368.097 246.146 367.838 246.17V246.281C368.097 246.293 368.38 246.355 368.687 246.466C369.007 246.577 369.303 246.755 369.573 247.001C369.844 247.235 370.072 247.543 370.256 247.924C370.441 248.293 370.533 248.748 370.533 249.29C370.533 249.807 370.447 250.293 370.275 250.748C370.115 251.203 369.887 251.597 369.592 251.929C369.296 252.262 368.946 252.526 368.54 252.723C368.133 252.908 367.691 253 367.211 253H360.935V240.116ZM363.021 251.21H366.601C367.143 251.21 367.567 251.068 367.875 250.785C368.183 250.502 368.337 250.096 368.337 249.567V248.939C368.337 248.41 368.183 248.004 367.875 247.721C367.567 247.438 367.143 247.296 366.601 247.296H363.021V251.21ZM363.021 245.561H366.251C366.768 245.561 367.168 245.432 367.451 245.174C367.734 244.903 367.875 244.521 367.875 244.029V243.439C367.875 242.946 367.734 242.571 367.451 242.313C367.168 242.042 366.768 241.907 366.251 241.907H363.021V245.561ZM376.72 253.221C376.055 253.221 375.446 253.105 374.893 252.871C374.351 252.637 373.89 252.305 373.508 251.874C373.127 251.431 372.831 250.902 372.622 250.287C372.413 249.659 372.308 248.964 372.308 248.201C372.308 247.438 372.413 246.749 372.622 246.134C372.831 245.506 373.127 244.977 373.508 244.546C373.89 244.103 374.351 243.765 374.893 243.531C375.446 243.297 376.055 243.18 376.72 243.18C377.384 243.18 377.987 243.297 378.529 243.531C379.083 243.765 379.55 244.103 379.932 244.546C380.313 244.977 380.608 245.506 380.818 246.134C381.027 246.749 381.131 247.438 381.131 248.201C381.131 248.964 381.027 249.659 380.818 250.287C380.608 250.902 380.313 251.431 379.932 251.874C379.55 252.305 379.083 252.637 378.529 252.871C377.987 253.105 377.384 253.221 376.72 253.221ZM376.72 251.56C377.409 251.56 377.963 251.351 378.381 250.933C378.8 250.502 379.009 249.862 379.009 249.013V247.389C379.009 246.54 378.8 245.906 378.381 245.487C377.963 245.057 377.409 244.841 376.72 244.841C376.031 244.841 375.477 245.057 375.059 245.487C374.64 245.906 374.431 246.54 374.431 247.389V249.013C374.431 249.862 374.64 250.502 375.059 250.933C375.477 251.351 376.031 251.56 376.72 251.56ZM389.188 251.413H389.114C389.028 251.646 388.911 251.874 388.763 252.096C388.628 252.317 388.449 252.514 388.228 252.686C388.019 252.846 387.76 252.975 387.453 253.074C387.157 253.172 386.813 253.221 386.419 253.221C385.422 253.221 384.647 252.902 384.093 252.262C383.552 251.622 383.281 250.705 383.281 249.511V243.402H385.293V249.253C385.293 250.742 385.908 251.486 387.139 251.486C387.397 251.486 387.649 251.456 387.896 251.394C388.142 251.32 388.357 251.216 388.542 251.08C388.738 250.945 388.892 250.773 389.003 250.564C389.126 250.354 389.188 250.108 389.188 249.825V243.402H391.2V253H389.188V251.413ZM396.129 253C395.44 253 394.923 252.828 394.579 252.483C394.247 252.126 394.081 251.634 394.081 251.007V239.341H396.092V251.357H397.421V253H396.129ZM403.109 253.221C402.42 253.221 401.805 253.105 401.264 252.871C400.722 252.637 400.261 252.305 399.879 251.874C399.498 251.431 399.202 250.902 398.993 250.287C398.796 249.659 398.698 248.964 398.698 248.201C398.698 247.438 398.796 246.749 398.993 246.134C399.202 245.506 399.498 244.977 399.879 244.546C400.261 244.103 400.722 243.765 401.264 243.531C401.805 243.297 402.42 243.18 403.109 243.18C403.811 243.18 404.426 243.303 404.955 243.549C405.497 243.795 405.946 244.14 406.303 244.583C406.66 245.014 406.924 245.518 407.096 246.097C407.281 246.675 407.373 247.296 407.373 247.961V248.718H400.784V249.031C400.784 249.77 400.999 250.379 401.43 250.859C401.873 251.326 402.5 251.56 403.313 251.56C403.903 251.56 404.402 251.431 404.808 251.173C405.214 250.914 405.558 250.564 405.841 250.121L407.023 251.283C406.666 251.874 406.149 252.348 405.472 252.705C404.795 253.049 404.008 253.221 403.109 253.221ZM403.109 244.749C402.765 244.749 402.445 244.811 402.15 244.934C401.867 245.057 401.621 245.229 401.411 245.451C401.214 245.672 401.061 245.937 400.95 246.244C400.839 246.552 400.784 246.89 400.784 247.259V247.389H405.251V247.204C405.251 246.466 405.06 245.875 404.678 245.432C404.297 244.977 403.774 244.749 403.109 244.749ZM411.524 253L408.257 243.402H410.251L411.709 247.776L412.687 251.136H412.798L413.776 247.776L415.271 243.402H417.191L413.887 253H411.524ZM425.754 253C425.225 253 424.819 252.852 424.536 252.557C424.253 252.249 424.081 251.862 424.019 251.394H423.927C423.742 251.997 423.404 252.452 422.912 252.76C422.419 253.068 421.823 253.221 421.121 253.221C420.124 253.221 419.355 252.963 418.814 252.446C418.285 251.929 418.02 251.234 418.02 250.36C418.02 249.401 418.365 248.681 419.054 248.201C419.755 247.721 420.777 247.481 422.118 247.481H423.853V246.669C423.853 246.078 423.693 245.623 423.373 245.303C423.053 244.983 422.555 244.823 421.878 244.823C421.312 244.823 420.85 244.946 420.494 245.192C420.137 245.438 419.835 245.752 419.589 246.134L418.389 245.044C418.709 244.503 419.158 244.06 419.737 243.715C420.315 243.359 421.072 243.18 422.007 243.18C423.25 243.18 424.204 243.469 424.868 244.048C425.533 244.626 425.865 245.457 425.865 246.54V251.357H426.88V253H425.754ZM421.693 251.689C422.321 251.689 422.838 251.554 423.244 251.283C423.65 251 423.853 250.625 423.853 250.157V248.773H422.155C420.764 248.773 420.069 249.204 420.069 250.065V250.397C420.069 250.828 420.211 251.154 420.494 251.376C420.789 251.585 421.189 251.689 421.693 251.689ZM428.852 253V243.402H430.864V245.248H430.956C431.092 244.755 431.375 244.325 431.805 243.955C432.236 243.586 432.833 243.402 433.596 243.402H434.131V245.34H433.337C432.538 245.34 431.922 245.469 431.492 245.727C431.073 245.986 430.864 246.367 430.864 246.872V253H428.852ZM441.864 251.413H441.772C441.562 251.979 441.218 252.422 440.738 252.742C440.27 253.062 439.716 253.221 439.077 253.221C437.858 253.221 436.917 252.785 436.252 251.911C435.588 251.025 435.256 249.788 435.256 248.201C435.256 246.613 435.588 245.383 436.252 244.509C436.917 243.623 437.858 243.18 439.077 243.18C439.716 243.18 440.27 243.34 440.738 243.66C441.218 243.968 441.562 244.411 441.772 244.989H441.864V239.341H443.876V253H441.864V251.413ZM439.686 251.486C440.301 251.486 440.818 251.339 441.236 251.043C441.655 250.736 441.864 250.336 441.864 249.844V246.558C441.864 246.066 441.655 245.672 441.236 245.377C440.818 245.069 440.301 244.915 439.686 244.915C438.984 244.915 438.424 245.143 438.006 245.598C437.588 246.041 437.378 246.632 437.378 247.37V249.031C437.378 249.77 437.588 250.367 438.006 250.822C438.424 251.265 438.984 251.486 439.686 251.486ZM447.988 250.434C448.444 250.434 448.782 250.551 449.003 250.785C449.225 251.019 449.336 251.32 449.336 251.689V251.985C449.336 252.588 449.17 253.215 448.837 253.868C448.517 254.532 448.08 255.092 447.527 255.547H446.032C446.425 255.153 446.751 254.772 447.01 254.403C447.268 254.034 447.465 253.621 447.601 253.166C447.281 253.105 447.041 252.969 446.881 252.76C446.721 252.539 446.641 252.28 446.641 251.985V251.689C446.641 251.32 446.751 251.019 446.973 250.785C447.194 250.551 447.533 250.434 447.988 250.434ZM456.615 240.116H461.174C461.999 240.116 462.743 240.251 463.408 240.522C464.084 240.793 464.657 241.199 465.124 241.74C465.604 242.27 465.973 242.94 466.232 243.752C466.49 244.552 466.619 245.487 466.619 246.558C466.619 247.629 466.49 248.57 466.232 249.382C465.973 250.182 465.604 250.853 465.124 251.394C464.657 251.923 464.084 252.323 463.408 252.594C462.743 252.865 461.999 253 461.174 253H456.615V240.116ZM461.174 251.154C462.134 251.154 462.909 250.853 463.5 250.25C464.091 249.647 464.386 248.761 464.386 247.592V245.524C464.386 244.355 464.091 243.469 463.5 242.866C462.909 242.263 462.134 241.962 461.174 241.962H458.701V251.154H461.174ZM477.134 247.389H471.301V253H469.215V240.116H471.301V245.543H477.134V240.116H479.219V253H477.134V247.389ZM490.439 253L489.277 249.511H484.459L483.333 253H481.21L485.603 240.116H488.225L492.618 253H490.439ZM486.914 242.036H486.822L484.957 247.721H488.76L486.914 242.036ZM315.261 268V259.624H316.617V266.8H320.025V268H315.261ZM325.901 268C325.557 268 325.293 267.904 325.109 267.712C324.925 267.512 324.813 267.26 324.773 266.956H324.713C324.593 267.348 324.373 267.644 324.053 267.844C323.733 268.044 323.345 268.144 322.889 268.144C322.241 268.144 321.741 267.976 321.389 267.64C321.045 267.304 320.873 266.852 320.873 266.284C320.873 265.66 321.097 265.192 321.545 264.88C322.001 264.568 322.665 264.412 323.537 264.412H324.665V263.884C324.665 263.5 324.561 263.204 324.353 262.996C324.145 262.788 323.821 262.684 323.381 262.684C323.013 262.684 322.713 262.764 322.481 262.924C322.249 263.084 322.053 263.288 321.893 263.536L321.113 262.828C321.321 262.476 321.613 262.188 321.989 261.964C322.365 261.732 322.857 261.616 323.465 261.616C324.273 261.616 324.893 261.804 325.325 262.18C325.757 262.556 325.973 263.096 325.973 263.8V266.932H326.633V268H325.901ZM323.261 267.148C323.669 267.148 324.005 267.06 324.269 266.884C324.533 266.7 324.665 266.456 324.665 266.152V265.252H323.561C322.657 265.252 322.205 265.532 322.205 266.092V266.308C322.205 266.588 322.297 266.8 322.481 266.944C322.673 267.08 322.933 267.148 323.261 267.148ZM327.915 259.12H329.223V262.792H329.283C329.419 262.456 329.623 262.176 329.895 261.952C330.175 261.728 330.555 261.616 331.035 261.616C331.675 261.616 332.171 261.828 332.523 262.252C332.883 262.668 333.063 263.264 333.063 264.04V268H331.755V264.196C331.755 263.228 331.363 262.744 330.579 262.744C330.411 262.744 330.243 262.768 330.075 262.816C329.915 262.856 329.771 262.92 329.643 263.008C329.515 263.096 329.411 263.208 329.331 263.344C329.259 263.48 329.223 263.636 329.223 263.812V268H327.915V259.12ZM337.324 268.144C336.892 268.144 336.496 268.068 336.136 267.916C335.784 267.764 335.484 267.548 335.236 267.268C334.988 266.98 334.796 266.636 334.66 266.236C334.524 265.828 334.456 265.376 334.456 264.88C334.456 264.384 334.524 263.936 334.66 263.536C334.796 263.128 334.988 262.784 335.236 262.504C335.484 262.216 335.784 261.996 336.136 261.844C336.496 261.692 336.892 261.616 337.324 261.616C337.756 261.616 338.148 261.692 338.5 261.844C338.86 261.996 339.164 262.216 339.412 262.504C339.66 262.784 339.852 263.128 339.988 263.536C340.124 263.936 340.192 264.384 340.192 264.88C340.192 265.376 340.124 265.828 339.988 266.236C339.852 266.636 339.66 266.98 339.412 267.268C339.164 267.548 338.86 267.764 338.5 267.916C338.148 268.068 337.756 268.144 337.324 268.144ZM337.324 267.064C337.772 267.064 338.132 266.928 338.404 266.656C338.676 266.376 338.812 265.96 338.812 265.408V264.352C338.812 263.8 338.676 263.388 338.404 263.116C338.132 262.836 337.772 262.696 337.324 262.696C336.876 262.696 336.516 262.836 336.244 263.116C335.972 263.388 335.836 263.8 335.836 264.352V265.408C335.836 265.96 335.972 266.376 336.244 266.656C336.516 266.928 336.876 267.064 337.324 267.064ZM341.65 268V261.76H342.958V262.96H343.018C343.106 262.64 343.29 262.36 343.57 262.12C343.85 261.88 344.238 261.76 344.734 261.76H345.082V263.02H344.566C344.046 263.02 343.646 263.104 343.366 263.272C343.094 263.44 342.958 263.688 342.958 264.016V268H341.65ZM348.633 268.144C348.185 268.144 347.785 268.068 347.433 267.916C347.081 267.764 346.781 267.548 346.533 267.268C346.285 266.98 346.093 266.636 345.957 266.236C345.829 265.828 345.765 265.376 345.765 264.88C345.765 264.384 345.829 263.936 345.957 263.536C346.093 263.128 346.285 262.784 346.533 262.504C346.781 262.216 347.081 261.996 347.433 261.844C347.785 261.692 348.185 261.616 348.633 261.616C349.089 261.616 349.489 261.696 349.833 261.856C350.185 262.016 350.477 262.24 350.709 262.528C350.941 262.808 351.113 263.136 351.225 263.512C351.345 263.888 351.405 264.292 351.405 264.724V265.216H347.121V265.42C347.121 265.9 347.261 266.296 347.541 266.608C347.829 266.912 348.237 267.064 348.765 267.064C349.149 267.064 349.473 266.98 349.737 266.812C350.001 266.644 350.225 266.416 350.409 266.128L351.177 266.884C350.945 267.268 350.609 267.576 350.169 267.808C349.729 268.032 349.217 268.144 348.633 268.144ZM348.633 262.636C348.409 262.636 348.201 262.676 348.009 262.756C347.825 262.836 347.665 262.948 347.529 263.092C347.401 263.236 347.301 263.408 347.229 263.608C347.157 263.808 347.121 264.028 347.121 264.268V264.352H350.025V264.232C350.025 263.752 349.901 263.368 349.653 263.08C349.405 262.784 349.065 262.636 348.633 262.636ZM353.446 266.332C353.742 266.332 353.962 266.408 354.106 266.56C354.25 266.712 354.322 266.908 354.322 267.148V267.34C354.322 267.732 354.214 268.14 353.998 268.564C353.79 268.996 353.506 269.36 353.146 269.656H352.174C352.43 269.4 352.642 269.152 352.81 268.912C352.978 268.672 353.106 268.404 353.194 268.108C352.986 268.068 352.83 267.98 352.726 267.844C352.622 267.7 352.57 267.532 352.57 267.34V267.148C352.57 266.908 352.642 266.712 352.786 266.56C352.93 266.408 353.15 266.332 353.446 266.332ZM359.054 268V259.624H362.654C363.43 259.624 364.03 259.852 364.454 260.308C364.878 260.764 365.09 261.376 365.09 262.144C365.09 262.912 364.878 263.524 364.454 263.98C364.03 264.436 363.43 264.664 362.654 264.664H360.41V268H359.054ZM360.41 263.476H362.57C362.914 263.476 363.182 263.388 363.374 263.212C363.566 263.028 363.662 262.768 363.662 262.432V261.856C363.662 261.52 363.566 261.264 363.374 261.088C363.182 260.904 362.914 260.812 362.57 260.812H360.41V263.476ZM370.913 268C370.569 268 370.305 267.904 370.121 267.712C369.937 267.512 369.825 267.26 369.785 266.956H369.725C369.605 267.348 369.385 267.644 369.065 267.844C368.745 268.044 368.357 268.144 367.901 268.144C367.253 268.144 366.753 267.976 366.401 267.64C366.057 267.304 365.885 266.852 365.885 266.284C365.885 265.66 366.109 265.192 366.557 264.88C367.013 264.568 367.677 264.412 368.549 264.412H369.677V263.884C369.677 263.5 369.573 263.204 369.365 262.996C369.157 262.788 368.833 262.684 368.393 262.684C368.025 262.684 367.725 262.764 367.493 262.924C367.261 263.084 367.065 263.288 366.905 263.536L366.125 262.828C366.333 262.476 366.625 262.188 367.001 261.964C367.377 261.732 367.869 261.616 368.477 261.616C369.285 261.616 369.905 261.804 370.337 262.18C370.769 262.556 370.985 263.096 370.985 263.8V266.932H371.645V268H370.913ZM368.273 267.148C368.681 267.148 369.017 267.06 369.281 266.884C369.545 266.7 369.677 266.456 369.677 266.152V265.252H368.573C367.669 265.252 367.217 265.532 367.217 266.092V266.308C367.217 266.588 367.309 266.8 367.493 266.944C367.685 267.08 367.945 267.148 368.273 267.148ZM372.927 259.12H374.235V264.568H374.295L375.159 263.452L376.659 261.76H378.183L375.999 264.172L378.447 268H376.887L375.099 265.024L374.235 265.96V268H372.927V259.12ZM380.149 260.644C379.877 260.644 379.677 260.58 379.549 260.452C379.429 260.324 379.369 260.16 379.369 259.96V259.756C379.369 259.556 379.429 259.392 379.549 259.264C379.677 259.136 379.877 259.072 380.149 259.072C380.421 259.072 380.617 259.136 380.737 259.264C380.857 259.392 380.917 259.556 380.917 259.756V259.96C380.917 260.16 380.857 260.324 380.737 260.452C380.617 260.58 380.421 260.644 380.149 260.644ZM379.489 261.76H380.797V268H379.489V261.76ZM384.645 268.144C384.053 268.144 383.557 268.04 383.157 267.832C382.757 267.624 382.409 267.336 382.113 266.968L382.953 266.2C383.185 266.48 383.441 266.7 383.721 266.86C384.009 267.012 384.341 267.088 384.717 267.088C385.101 267.088 385.385 267.016 385.569 266.872C385.761 266.72 385.857 266.512 385.857 266.248C385.857 266.048 385.789 265.88 385.653 265.744C385.525 265.6 385.297 265.508 384.969 265.468L384.393 265.396C383.753 265.316 383.249 265.132 382.881 264.844C382.521 264.548 382.341 264.112 382.341 263.536C382.341 263.232 382.397 262.964 382.509 262.732C382.621 262.492 382.777 262.292 382.977 262.132C383.185 261.964 383.429 261.836 383.709 261.748C383.997 261.66 384.313 261.616 384.657 261.616C385.217 261.616 385.673 261.704 386.025 261.88C386.385 262.056 386.705 262.3 386.985 262.612L386.181 263.38C386.021 263.188 385.809 263.024 385.545 262.888C385.289 262.744 384.993 262.672 384.657 262.672C384.297 262.672 384.029 262.744 383.853 262.888C383.685 263.032 383.601 263.22 383.601 263.452C383.601 263.692 383.677 263.872 383.829 263.992C383.981 264.112 384.225 264.2 384.561 264.256L385.137 264.328C385.825 264.432 386.325 264.636 386.637 264.94C386.957 265.236 387.117 265.636 387.117 266.14C387.117 266.444 387.057 266.72 386.937 266.968C386.825 267.208 386.661 267.416 386.445 267.592C386.229 267.768 385.969 267.904 385.665 268C385.361 268.096 385.021 268.144 384.645 268.144ZM390.241 268C389.785 268 389.441 267.884 389.209 267.652C388.977 267.412 388.861 267.076 388.861 266.644V262.828H387.889V261.76H388.417C388.633 261.76 388.781 261.712 388.861 261.616C388.949 261.52 388.993 261.364 388.993 261.148V260.056H390.169V261.76H391.477V262.828H390.169V266.932H391.381V268H390.241ZM397.468 268C397.124 268 396.86 267.904 396.676 267.712C396.492 267.512 396.38 267.26 396.34 266.956H396.28C396.16 267.348 395.94 267.644 395.62 267.844C395.3 268.044 394.912 268.144 394.456 268.144C393.808 268.144 393.308 267.976 392.956 267.64C392.612 267.304 392.44 266.852 392.44 266.284C392.44 265.66 392.664 265.192 393.112 264.88C393.568 264.568 394.232 264.412 395.104 264.412H396.232V263.884C396.232 263.5 396.128 263.204 395.92 262.996C395.712 262.788 395.388 262.684 394.948 262.684C394.58 262.684 394.28 262.764 394.048 262.924C393.816 263.084 393.62 263.288 393.46 263.536L392.68 262.828C392.888 262.476 393.18 262.188 393.556 261.964C393.932 261.732 394.424 261.616 395.032 261.616C395.84 261.616 396.46 261.804 396.892 262.18C397.324 262.556 397.54 263.096 397.54 263.8V266.932H398.2V268H397.468ZM394.828 267.148C395.236 267.148 395.572 267.06 395.836 266.884C396.1 266.7 396.232 266.456 396.232 266.152V265.252H395.128C394.224 265.252 393.772 265.532 393.772 266.092V266.308C393.772 266.588 393.864 266.8 394.048 266.944C394.24 267.08 394.5 267.148 394.828 267.148ZM399.482 268V261.76H400.79V262.792H400.85C400.986 262.456 401.19 262.176 401.462 261.952C401.742 261.728 402.122 261.616 402.602 261.616C403.242 261.616 403.738 261.828 404.09 262.252C404.45 262.668 404.63 263.264 404.63 264.04V268H403.322V264.208C403.322 263.232 402.93 262.744 402.146 262.744C401.978 262.744 401.81 262.768 401.642 262.816C401.482 262.856 401.338 262.92 401.21 263.008C401.082 263.096 400.978 263.208 400.898 263.344C400.826 263.48 400.79 263.64 400.79 263.824V268H399.482ZM315.261 292V283.624H320.625V284.824H316.617V287.152H320.253V288.352H316.617V290.8H320.625V292H315.261ZM324.258 292.144C323.666 292.144 323.17 292.04 322.77 291.832C322.37 291.624 322.022 291.336 321.726 290.968L322.566 290.2C322.798 290.48 323.054 290.7 323.334 290.86C323.622 291.012 323.954 291.088 324.33 291.088C324.714 291.088 324.998 291.016 325.182 290.872C325.374 290.72 325.47 290.512 325.47 290.248C325.47 290.048 325.402 289.88 325.266 289.744C325.138 289.6 324.91 289.508 324.582 289.468L324.006 289.396C323.366 289.316 322.862 289.132 322.494 288.844C322.134 288.548 321.954 288.112 321.954 287.536C321.954 287.232 322.01 286.964 322.122 286.732C322.234 286.492 322.39 286.292 322.59 286.132C322.798 285.964 323.042 285.836 323.322 285.748C323.61 285.66 323.926 285.616 324.27 285.616C324.83 285.616 325.286 285.704 325.638 285.88C325.998 286.056 326.318 286.3 326.598 286.612L325.794 287.38C325.634 287.188 325.422 287.024 325.158 286.888C324.902 286.744 324.606 286.672 324.27 286.672C323.91 286.672 323.642 286.744 323.466 286.888C323.298 287.032 323.214 287.22 323.214 287.452C323.214 287.692 323.29 287.872 323.442 287.992C323.594 288.112 323.838 288.2 324.174 288.256L324.75 288.328C325.438 288.432 325.938 288.636 326.25 288.94C326.57 289.236 326.73 289.636 326.73 290.14C326.73 290.444 326.67 290.72 326.55 290.968C326.438 291.208 326.274 291.416 326.058 291.592C325.842 291.768 325.582 291.904 325.278 292C324.974 292.096 324.634 292.144 324.258 292.144ZM329.854 292C329.398 292 329.054 291.884 328.822 291.652C328.59 291.412 328.474 291.076 328.474 290.644V286.828H327.502V285.76H328.03C328.246 285.76 328.394 285.712 328.474 285.616C328.562 285.52 328.606 285.364 328.606 285.148V284.056H329.782V285.76H331.09V286.828H329.782V290.932H330.994V292H329.854ZM340.901 292H335.213V290.704L337.889 288.316C338.313 287.932 338.637 287.568 338.861 287.224C339.093 286.872 339.209 286.504 339.209 286.12V285.964C339.209 285.556 339.085 285.236 338.837 285.004C338.597 284.772 338.269 284.656 337.853 284.656C337.621 284.656 337.417 284.692 337.241 284.764C337.073 284.828 336.925 284.92 336.797 285.04C336.669 285.16 336.561 285.3 336.473 285.46C336.393 285.62 336.329 285.792 336.281 285.976L335.093 285.52C335.181 285.256 335.301 285.004 335.453 284.764C335.605 284.516 335.797 284.296 336.029 284.104C336.261 283.912 336.533 283.76 336.845 283.648C337.165 283.536 337.537 283.48 337.961 283.48C338.385 283.48 338.765 283.544 339.101 283.672C339.437 283.792 339.717 283.964 339.941 284.188C340.173 284.404 340.349 284.664 340.469 284.968C340.589 285.272 340.649 285.604 340.649 285.964C340.649 286.3 340.597 286.612 340.493 286.9C340.389 287.188 340.245 287.46 340.061 287.716C339.877 287.972 339.661 288.216 339.413 288.448C339.173 288.68 338.917 288.916 338.645 289.156L336.677 290.848H340.901V292ZM345.204 292.144C344.684 292.144 344.232 292.048 343.848 291.856C343.464 291.656 343.148 291.372 342.9 291.004C342.652 290.636 342.468 290.184 342.348 289.648C342.228 289.112 342.168 288.5 342.168 287.812C342.168 287.132 342.228 286.524 342.348 285.988C342.468 285.444 342.652 284.988 342.9 284.62C343.148 284.252 343.464 283.972 343.848 283.78C344.232 283.58 344.684 283.48 345.204 283.48C346.244 283.48 347.008 283.86 347.496 284.62C347.992 285.38 348.24 286.444 348.24 287.812C348.24 289.18 347.992 290.244 347.496 291.004C347.008 291.764 346.244 292.144 345.204 292.144ZM345.204 290.992C345.492 290.992 345.736 290.936 345.936 290.824C346.144 290.704 346.312 290.536 346.44 290.32C346.568 290.104 346.66 289.848 346.716 289.552C346.772 289.248 346.8 288.912 346.8 288.544V287.08C346.8 286.712 346.772 286.38 346.716 286.084C346.66 285.78 346.568 285.52 346.44 285.304C346.312 285.088 346.144 284.924 345.936 284.812C345.736 284.692 345.492 284.632 345.204 284.632C344.916 284.632 344.668 284.692 344.46 284.812C344.26 284.924 344.096 285.088 343.968 285.304C343.84 285.52 343.748 285.78 343.692 286.084C343.636 286.38 343.608 286.712 343.608 287.08V288.544C343.608 288.912 343.636 289.248 343.692 289.552C343.748 289.848 343.84 290.104 343.968 290.32C344.096 290.536 344.26 290.704 344.46 290.824C344.668 290.936 344.916 290.992 345.204 290.992ZM355.291 292H349.603V290.704L352.279 288.316C352.703 287.932 353.027 287.568 353.251 287.224C353.483 286.872 353.599 286.504 353.599 286.12V285.964C353.599 285.556 353.475 285.236 353.227 285.004C352.987 284.772 352.659 284.656 352.243 284.656C352.011 284.656 351.807 284.692 351.631 284.764C351.463 284.828 351.315 284.92 351.187 285.04C351.059 285.16 350.951 285.3 350.863 285.46C350.783 285.62 350.719 285.792 350.671 285.976L349.483 285.52C349.571 285.256 349.691 285.004 349.843 284.764C349.995 284.516 350.187 284.296 350.419 284.104C350.651 283.912 350.923 283.76 351.235 283.648C351.555 283.536 351.927 283.48 352.351 283.48C352.775 283.48 353.155 283.544 353.491 283.672C353.827 283.792 354.107 283.964 354.331 284.188C354.563 284.404 354.739 284.664 354.859 284.968C354.979 285.272 355.039 285.604 355.039 285.964C355.039 286.3 354.987 286.612 354.883 286.9C354.779 287.188 354.635 287.46 354.451 287.716C354.267 287.972 354.051 288.216 353.803 288.448C353.563 288.68 353.307 288.916 353.035 289.156L351.067 290.848H355.291V292ZM359.595 292.144C359.075 292.144 358.623 292.048 358.239 291.856C357.855 291.656 357.539 291.372 357.291 291.004C357.043 290.636 356.859 290.184 356.739 289.648C356.619 289.112 356.559 288.5 356.559 287.812C356.559 287.132 356.619 286.524 356.739 285.988C356.859 285.444 357.043 284.988 357.291 284.62C357.539 284.252 357.855 283.972 358.239 283.78C358.623 283.58 359.075 283.48 359.595 283.48C360.635 283.48 361.399 283.86 361.887 284.62C362.383 285.38 362.631 286.444 362.631 287.812C362.631 289.18 362.383 290.244 361.887 291.004C361.399 291.764 360.635 292.144 359.595 292.144ZM359.595 290.992C359.883 290.992 360.127 290.936 360.327 290.824C360.535 290.704 360.703 290.536 360.831 290.32C360.959 290.104 361.051 289.848 361.107 289.552C361.163 289.248 361.191 288.912 361.191 288.544V287.08C361.191 286.712 361.163 286.38 361.107 286.084C361.051 285.78 360.959 285.52 360.831 285.304C360.703 285.088 360.535 284.924 360.327 284.812C360.127 284.692 359.883 284.632 359.595 284.632C359.307 284.632 359.059 284.692 358.851 284.812C358.651 284.924 358.487 285.088 358.359 285.304C358.231 285.52 358.139 285.78 358.083 286.084C358.027 286.38 357.999 286.712 357.999 287.08V288.544C357.999 288.912 358.027 289.248 358.083 289.552C358.139 289.848 358.231 290.104 358.359 290.32C358.487 290.536 358.651 290.704 358.851 290.824C359.059 290.936 359.307 290.992 359.595 290.992Z" fill="white" fill-opacity="0.8"/>
<path d="M320.11 184.939H312.627L305 150.49H312.338L317.001 173.868L323.747 150.49H330.444L337.142 173.771L341.82 150.49H348.903L341.276 184.939H333.793L326.951 160.873L320.11 184.939Z" fill="white" fill-opacity="0.9"/>
<path d="M359.687 185.388C356.931 185.388 354.68 184.659 352.942 183.193C351.199 181.731 350.33 179.836 350.33 177.505C350.33 175.081 351.263 173.179 353.134 171.801C355.001 170.423 357.576 169.734 360.857 169.734C361.914 169.734 362.964 169.814 364.013 169.974C365.059 170.134 366.096 170.383 367.122 170.711V168.901C367.122 167.418 366.661 166.301 365.744 165.552C364.823 164.795 363.477 164.414 361.706 164.414C360.617 164.414 359.439 164.586 358.181 164.927C356.919 165.271 355.481 165.804 353.871 166.529L351.42 161.562C353.414 160.645 355.353 159.956 357.236 159.495C359.127 159.038 360.989 158.806 362.828 158.806C366.277 158.806 368.956 159.635 370.871 161.29C372.794 162.948 373.755 165.287 373.755 168.308V184.939H367.122V183.161C366.032 183.922 364.887 184.483 363.693 184.843C362.495 185.204 361.161 185.388 359.687 185.388ZM356.787 177.361C356.787 178.346 357.208 179.123 358.053 179.7C358.906 180.277 360.04 180.565 361.45 180.565C362.571 180.565 363.597 180.429 364.526 180.149C365.464 179.86 366.329 179.456 367.122 178.931V175.101C366.297 174.773 365.431 174.533 364.526 174.38C363.629 174.232 362.688 174.156 361.706 174.156C360.156 174.156 358.95 174.444 358.085 175.021C357.22 175.598 356.787 176.379 356.787 177.361Z" fill="white" fill-opacity="0.9"/>
<path d="M384.348 149V184.939H377.602V150.49L384.348 149Z" fill="white" fill-opacity="0.9"/>
<path d="M391.826 177.697V164.959H386.554V159.287H391.826V152.75L398.571 151.228V159.287H405.862V164.959H398.571V176.319C398.571 177.537 398.832 178.394 399.356 178.883C399.877 179.376 400.798 179.62 402.112 179.62C402.729 179.62 403.318 179.584 403.875 179.508C404.439 179.424 405.048 179.263 405.701 179.027V184.539C404.984 184.775 404.115 184.964 403.09 185.116C402.072 185.264 401.207 185.34 400.494 185.34C397.63 185.34 395.467 184.695 394.005 183.401C392.551 182.099 391.826 180.197 391.826 177.697Z" fill="white" fill-opacity="0.9"/>
<path d="M406.737 172.137C406.737 170.27 407.09 168.524 407.795 166.898C408.5 165.275 409.465 163.865 410.695 162.668C411.933 161.474 413.387 160.533 415.053 159.848C416.727 159.155 418.518 158.806 420.421 158.806C422.319 158.806 424.11 159.155 425.788 159.848C427.463 160.533 428.917 161.474 430.147 162.668C431.372 163.865 432.342 165.275 433.047 166.898C433.752 168.524 434.104 170.27 434.104 172.137C434.104 174.008 433.752 175.758 433.047 177.393C432.342 179.019 431.372 180.421 430.147 181.607C428.917 182.784 427.463 183.718 425.788 184.411C424.11 185.092 422.319 185.436 420.421 185.436C418.518 185.436 416.727 185.092 415.053 184.411C413.387 183.718 411.933 182.784 410.695 181.607C409.465 180.421 408.5 179.019 407.795 177.393C407.09 175.758 406.737 174.008 406.737 172.137ZM420.421 179.572C422.384 179.572 424.058 178.851 425.436 177.409C426.822 175.967 427.519 174.212 427.519 172.137C427.519 170.046 426.822 168.276 425.436 166.834C424.058 165.384 422.384 164.654 420.421 164.654C418.454 164.654 416.784 165.384 415.406 166.834C414.028 168.276 413.339 170.046 413.339 172.137C413.339 174.212 414.028 175.967 415.406 177.409C416.784 178.851 418.454 179.572 420.421 179.572Z" fill="white" fill-opacity="0.9"/>
<path d="M436.964 184.939V159.287H443.709V161.306C444.691 160.497 445.78 159.876 446.978 159.447C448.172 159.022 449.478 158.806 450.888 158.806C453.844 158.806 456.275 159.76 458.178 161.658C460.077 163.561 461.03 166.008 461.03 168.997V184.939H454.285V169.974C454.285 168.372 453.796 167.082 452.826 166.097C451.865 165.103 450.575 164.606 448.965 164.606C447.851 164.606 446.842 164.831 445.937 165.279C445.039 165.72 444.294 166.349 443.709 167.17V184.939H436.964Z" fill="white" fill-opacity="0.9"/>
<path d="M468.366 177.697V164.959H463.094V159.287H468.366V152.75L475.111 151.228V159.287H482.402V164.959H475.111V176.319C475.111 177.537 475.372 178.394 475.896 178.883C476.417 179.376 477.339 179.62 478.652 179.62C479.269 179.62 479.858 179.584 480.415 179.508C480.98 179.424 481.589 179.263 482.241 179.027V184.539C481.524 184.775 480.655 184.964 479.63 185.116C478.612 185.264 477.747 185.34 477.034 185.34C474.17 185.34 472.007 184.695 470.545 183.401C469.091 182.099 468.366 180.197 468.366 177.697Z" fill="white" fill-opacity="0.9"/>
<path d="M507.456 181.735C505.874 183.016 504.255 183.958 502.601 184.555C500.943 185.139 499.096 185.436 497.057 185.436C495.122 185.436 493.312 185.091 491.625 184.41C489.935 183.717 488.473 182.784 487.235 181.606C486.005 180.421 485.04 179.019 484.335 177.392C483.63 175.758 483.277 174.008 483.277 172.137C483.277 170.302 483.614 168.572 484.287 166.946C484.96 165.323 485.881 163.913 487.059 162.716C488.244 161.522 489.646 160.58 491.273 159.895C492.895 159.203 494.626 158.854 496.464 158.854C498.267 158.854 499.949 159.207 501.511 159.912C503.07 160.617 504.416 161.578 505.549 162.796C506.679 164.005 507.568 165.455 508.209 167.154C508.85 168.844 509.17 170.671 509.17 172.634V174.412H490.071C490.528 176.014 491.417 177.308 492.731 178.29C494.045 179.275 495.587 179.764 497.361 179.764C498.471 179.764 499.517 179.588 500.502 179.235C501.495 178.875 502.333 178.362 503.018 177.697L507.456 181.735ZM496.32 164.414C494.782 164.414 493.452 164.887 492.33 165.824C491.217 166.753 490.448 168.011 490.023 169.589H502.569C502.14 168.075 501.359 166.833 500.23 165.872C499.096 164.903 497.794 164.414 496.32 164.414Z" fill="white" fill-opacity="0.9"/>
<path d="M524.573 179.524C525.727 179.524 526.8 179.295 527.794 178.835C528.795 178.378 529.757 177.657 530.678 176.672L534.716 180.854C533.402 182.296 531.824 183.425 529.989 184.234C528.15 185.035 526.248 185.436 524.285 185.436C522.414 185.436 520.648 185.092 518.981 184.411C517.323 183.718 515.897 182.784 514.703 181.607C513.506 180.421 512.56 179.019 511.867 177.393C511.182 175.758 510.842 174.008 510.842 172.137C510.842 170.27 511.182 168.524 511.867 166.898C512.56 165.275 513.506 163.865 514.703 162.668C515.897 161.474 517.323 160.533 518.981 159.848C520.648 159.155 522.414 158.806 524.285 158.806C526.312 158.806 528.263 159.207 530.133 160.008C532 160.809 533.594 161.931 534.908 163.373L530.774 167.763C529.853 166.749 528.871 165.98 527.826 165.456C526.776 164.923 525.647 164.654 524.429 164.654C522.494 164.654 520.86 165.384 519.526 166.834C518.2 168.276 517.539 170.046 517.539 172.137C517.539 174.244 518.216 175.999 519.574 177.409C520.94 178.819 522.606 179.524 524.573 179.524Z" fill="white" fill-opacity="0.9"/>
<path d="M536.934 184.939V150.49L543.679 149V161.306C544.661 160.496 545.75 159.875 546.948 159.447C548.142 159.022 549.448 158.806 550.858 158.806C553.814 158.806 556.245 159.759 558.148 161.658C560.047 163.561 561 166.008 561 168.996V184.939H554.254V169.974C554.254 168.372 553.766 167.082 552.796 166.096C551.835 165.103 550.545 164.606 548.935 164.606C547.821 164.606 546.812 164.831 545.907 165.279C545.009 165.72 544.264 166.349 543.679 167.17V184.939H536.934Z" fill="white" fill-opacity="0.9"/>
<mask id="mask0_220_146" style="mask-type:luminance" maskUnits="userSpaceOnUse" x="313" y="201" width="247" height="12">
<path d="M313.605 201.902H559.656V212.329H313.605V201.902Z" fill="white"/>
</mask>
<g mask="url(#mask0_220_146)">
<mask id="mask1_220_146" style="mask-type:luminance" maskUnits="userSpaceOnUse" x="313" y="201" width="247" height="12">
<path d="M313.605 201.902L315.833 212.189L559.656 202.459L559.515 201.902H313.605Z" fill="white"/>
</mask>
<g mask="url(#mask1_220_146)">
<path d="M313.605 201.902H559.656V212.121H313.605V201.902Z" fill="white" fill-opacity="0.9"/>
</g>
</g>
<defs>
<radialGradient id="paint0_radial_220_146" cx="0" cy="0" r="1" gradientUnits="userSpaceOnUse" gradientTransform="translate(471.501 192) rotate(81.5544) scale(3326.07 14222.8)">
<stop stop-color="#210062"/>
<stop offset="1" stop-color="#F9D949"/>
</radialGradient>
</defs>
</svg>
